<svg xmlns="http://www.w3.org/2000/svg" width="50" height="50" viewBox="0 0 50 50" fill="none">
    <path d="M10.0937 15.6822C13.5347 15.6822 16.3242 12.9011 16.3242 9.47034C16.3242 6.03962 13.5347 3.25848 10.0937 3.25848C6.65273 3.25848 3.86324 6.03962 3.86324 9.47034C3.86324 12.9011 6.65273 15.6822 10.0937 15.6822Z" fill="#F27F0C"/>
    <path d="M24.905 15.6822C28.346 15.6822 31.1355 12.9011 31.1355 9.47034C31.1355 6.03962 28.346 3.25848 24.905 3.25848C21.464 3.25848 18.6745 6.03962 18.6745 9.47034C18.6745 12.9011 21.464 15.6822 24.905 15.6822Z" fill="#F27F0C"/>
    <path d="M39.7162 15.6822C43.1573 15.6822 45.9467 12.9011 45.9467 9.47034C45.9467 6.03962 43.1573 3.25848 39.7162 3.25848C36.2752 3.25848 33.4857 6.03962 33.4857 9.47034C33.4857 12.9011 36.2752 15.6822 39.7162 15.6822Z" fill="#F27F0C"/>
    <path d="M24.905 31.1907C28.346 31.1907 31.1355 28.4095 31.1355 24.9788C31.1355 21.5481 28.346 18.767 24.905 18.767C21.464 18.767 18.6745 21.5481 18.6745 24.9788C18.6745 28.4095 21.464 31.1907 24.905 31.1907Z" fill="#F27F0C"/>
    <path d="M10.0937 31.1907C13.5347 31.1907 16.3242 28.4095 16.3242 24.9788C16.3242 21.5481 13.5347 18.767 10.0937 18.767C6.65273 18.767 3.86324 21.5481 3.86324 24.9788C3.86324 28.4095 6.65273 31.1907 10.0937 31.1907Z" fill="#F27F0C"/>
    <path d="M10.0937 46.6992C13.5347 46.6992 16.3242 43.918 16.3242 40.4873C16.3242 37.0566 13.5347 34.2754 10.0937 34.2754C6.65273 34.2754 3.86324 37.0566 3.86324 40.4873C3.86324 43.918 6.65273 46.6992 10.0937 46.6992Z" fill="#F27F0C"/>
    <path d="M24.905 46.6992C28.346 46.6992 31.1355 43.918 31.1355 40.4873C31.1355 37.0566 28.346 34.2754 24.905 34.2754C21.464 34.2754 18.6745 37.0566 18.6745 40.4873C18.6745 43.918 21.464 46.6992 24.905 46.6992Z" fill="#F27F0C"/>
    <path d="M39.7162 46.6992C43.1573 46.6992 45.9467 43.918 45.9467 40.4873C45.9467 37.0566 43.1573 34.2754 39.7162 34.2754C36.2752 34.2754 33.4857 37.0566 33.4857 40.4873C33.4857 43.918 36.2752 46.6992 39.7162 46.6992Z" fill="#F27F0C"/>
</svg>
