<svg xmlns="http://www.w3.org/2000/svg" width="119" height="50" viewBox="0 0 119 50" fill="none">
    <g clip-path="url(#clip0_4657_431)">
        <path d="M65.943 5.76694C65.1355 4.75423 63.8562 4.24576 62.526 4.24576C61.1957 4.24576 59.8782 4.78813 59.109 5.76694C58.3185 6.74576 58.038 7.98728 58.038 9.20762C58.038 10.428 58.3015 11.6695 59.109 12.6652C59.9165 13.6949 61.1575 14.2034 62.526 14.2034C63.8945 14.2034 65.1185 13.7161 65.943 12.6652C66.7335 11.6525 67.014 10.4619 67.014 9.20762C67.014 7.95338 66.7505 6.77966 65.943 5.76694ZM64.906 11.8814C64.362 12.5975 63.4695 12.983 62.5217 12.983C61.574 12.983 60.6645 12.5975 60.1375 11.8814C59.5765 11.1652 59.4022 10.1864 59.4022 9.20762C59.4022 8.22881 59.5765 7.26694 60.1375 6.55084C60.6645 5.83474 61.574 5.4661 62.5217 5.4661C63.4695 5.4661 64.362 5.83474 64.906 6.55084C65.467 7.26694 65.6413 8.26271 65.6413 9.20762C65.6413 10.1525 65.467 11.1652 64.906 11.8814Z" fill="#FFFFFF"/>
        <path d="M81.1708 11.8814C81.7148 12.5975 82.6243 12.983 83.572 12.983C84.2393 12.983 84.8513 12.8263 85.3783 12.4958C85.867 12.1652 86.2538 11.7288 86.5343 11.1695L87.7455 11.6229C87.3588 12.4788 86.7468 13.1441 86.0285 13.5805C85.3103 14 84.4518 14.2076 83.6103 14.2076C82.2588 14.2076 80.9455 13.6822 80.1593 12.6695C79.3688 11.6737 79.0883 10.4491 79.0883 9.26271C79.0883 8.07627 79.3688 6.76271 80.1593 5.76694C80.9838 4.75423 82.2078 4.24576 83.5763 4.24576C84.9448 4.24576 86.0838 4.7161 86.904 5.74999C87.7285 6.77966 87.9538 8.14406 87.9198 9.59321H80.4695C80.5035 10.4322 80.699 11.2542 81.1708 11.8814ZM81.1878 6.49999C80.75 7.05932 80.5588 7.75847 80.4865 8.49152H86.5683C86.5173 7.70339 86.3558 7.04237 85.918 6.48305C85.391 5.78389 84.4815 5.41525 83.5678 5.41525C82.654 5.41525 81.7445 5.76271 81.1835 6.49999H81.1878Z" fill="#FFFFFF"/>
        <path d="M64.5575 24.4873C64.0687 23.2119 63.0487 22.6356 61.7865 22.6186C60.6305 22.5847 59.5255 23.089 59.5255 23.9831C59.5255 24.7712 60.1035 25.0847 61.0682 25.3475C61.557 25.4873 62.1562 25.6441 63.0147 25.8729C64.5915 26.2924 65.8197 27.1992 65.8197 28.6525C65.8197 29.4576 65.348 30.3305 64.6085 30.767C63.8732 31.2542 62.9425 31.3941 62.016 31.3941C60.911 31.3941 59.9292 31.1483 59.0707 30.3644C58.5607 29.8771 58.2292 29.2627 58.038 28.7203L59.211 28.3347C59.3852 28.7881 59.6147 29.1737 59.9802 29.5212C60.5072 29.9915 61.2425 30.2203 62.0117 30.2203C62.662 30.2203 63.4823 30.0805 63.9413 29.767C64.345 29.5042 64.5702 29.1017 64.5702 28.6314C64.5702 27.7034 63.6777 27.3559 62.6237 27.0593C61.7312 26.7966 61.2552 26.6737 60.6772 26.5C60.0822 26.3093 59.432 26.0805 58.9432 25.6102C58.4715 25.1907 58.276 24.5424 58.276 24.0042C58.276 23.0424 58.9602 22.2034 59.8187 21.822C60.503 21.5085 61.1872 21.4364 61.8332 21.4534C62.5005 21.4534 63.2017 21.5932 63.8307 21.9068C64.7232 22.3602 65.5307 23.2881 65.7942 24.178L64.549 24.4915L64.5575 24.4873Z" fill="#FFFFFF"/>
        <path d="M68.289 29.8686C67.4815 28.8729 67.218 27.6483 67.218 26.411C67.218 25.1737 67.4985 23.9491 68.289 22.9703C69.0582 21.9915 70.3375 21.4492 71.706 21.4492C73.0745 21.4492 74.3155 21.9576 75.123 22.9703C75.9305 23.983 76.194 25.2076 76.194 26.411C76.194 27.6144 75.9135 28.8559 75.123 29.8686C74.2985 30.9152 73.0745 31.4068 71.706 31.4068C70.3375 31.4068 69.0965 30.8983 68.289 29.8686ZM74.0902 23.7542C73.5462 23.0381 72.6537 22.6695 71.706 22.6695C70.7582 22.6695 69.8487 23.0381 69.3217 23.7542C68.7607 24.4703 68.5865 25.4661 68.5865 26.411C68.5865 27.3559 68.7607 28.3686 69.3217 29.0847C69.8487 29.8008 70.7582 30.1864 71.706 30.1864C72.6537 30.1864 73.5462 29.8008 74.0902 29.0847C74.6512 28.3686 74.8255 27.3898 74.8255 26.411C74.8255 25.4322 74.6512 24.4703 74.0902 23.7542Z" fill="#FFFFFF"/>
        <path d="M86.0753 21.7076V31.1441H84.9193V29.8178C84.796 30.0085 84.6387 30.2034 84.4645 30.3771C83.8355 31.0254 82.9388 31.322 82.0973 31.3559C81.1665 31.428 80.206 31.25 79.4155 30.6229C78.1022 29.6441 77.928 27.9661 77.945 26.2881V21.7119H79.2413V26.2542C79.2413 27.7203 79.3985 28.9449 80.3462 29.6441C80.8562 30.0127 81.4853 30.1864 82.1865 30.1525C82.7985 30.1356 83.3765 29.9237 83.7973 29.5424C84.252 29.1398 84.5495 28.5636 84.6728 27.9153C84.762 27.5127 84.779 27.0593 84.779 26.5678V21.7119H86.0753V21.7076Z" fill="#FFFFFF"/>
        <path d="M101.919 24.4703C101.728 23.9449 101.324 23.4407 100.848 23.1441C100.377 22.8136 99.8155 22.6737 99.2163 22.6737C98.2685 22.6737 97.41 23.0424 96.866 23.7754C96.305 24.4915 96.1478 25.4703 96.1308 26.4322C96.1478 27.3941 96.305 28.3729 96.866 29.089C97.41 29.8051 98.2685 30.1907 99.2163 30.1907C99.8113 30.1907 100.389 30.0508 100.882 29.7203C101.354 29.4237 101.673 28.9873 101.898 28.4619L103.177 28.8305C102.863 29.5975 102.353 30.2966 101.69 30.7331C100.972 31.2034 100.198 31.4153 99.2205 31.4153C97.801 31.4153 96.645 30.928 95.8375 29.8771C95.03 28.8644 94.7878 27.6398 94.7665 26.4364C94.7835 25.1949 95.047 23.9746 95.8375 22.9746C96.662 21.9449 97.801 21.4534 99.2375 21.4534C100.13 21.4534 100.865 21.6271 101.588 22.0636C102.306 22.517 102.918 23.2161 103.182 24.0551L101.919 24.4746V24.4703Z" fill="#FFFFFF"/>
        <path d="M106.297 29.0805C106.841 29.7966 107.75 30.1822 108.698 30.1822C109.365 30.1822 109.977 30.0254 110.504 29.6949C110.993 29.3644 111.38 28.928 111.66 28.3686L112.871 28.822C112.485 29.678 111.873 30.3432 111.155 30.7797C110.436 31.1991 109.578 31.4068 108.736 31.4068C107.385 31.4068 106.072 30.8813 105.285 29.8686C104.495 28.8729 104.214 27.6483 104.214 26.4619C104.214 25.2754 104.495 23.9619 105.285 22.9661C106.11 21.9534 107.334 21.4449 108.702 21.4449C110.071 21.4449 111.21 21.9152 112.03 22.9491C112.855 23.9788 113.08 25.3432 113.046 26.7924H105.595C105.629 27.6314 105.825 28.4534 106.297 29.0805ZM106.314 23.6991C105.876 24.2585 105.685 24.9576 105.613 25.6907H111.694C111.643 24.9025 111.482 24.2415 111.044 23.6822C110.517 22.983 109.608 22.6144 108.694 22.6144C107.78 22.6144 106.871 22.9619 106.31 23.6991H106.314Z" fill="#FFFFFF"/>
        <path d="M59.9973 43.8771C60.5413 44.5932 61.4508 44.9788 62.3985 44.9788C63.0658 44.9788 63.6778 44.822 64.2048 44.4915C64.6935 44.161 65.0803 43.7246 65.3608 43.1653L66.572 43.6186C66.1853 44.4746 65.5733 45.1398 64.855 45.5763C64.1368 45.9958 63.2783 46.2034 62.4368 46.2034C61.0853 46.2034 59.772 45.678 58.9858 44.6653C58.1953 43.6695 57.9148 42.4449 57.9148 41.2585C57.9148 40.072 58.1953 38.7585 58.9858 37.7627C59.8103 36.75 61.0342 36.2415 62.4027 36.2415C63.7712 36.2415 64.9103 36.7119 65.7305 37.7458C66.555 38.7754 66.7802 40.1398 66.7463 41.589H59.296C59.33 42.428 59.5255 43.25 59.9973 43.8771ZM60.0143 38.4958C59.5765 39.0551 59.3853 39.7542 59.313 40.4873H65.3948C65.3438 39.6992 65.1823 39.0381 64.7445 38.4788C64.2175 37.7797 63.308 37.411 62.3943 37.411C61.4805 37.411 60.571 37.7585 60.01 38.4958H60.0143Z" fill="#FFFFFF"/>
        <path d="M76.6488 36.5042V45.9407H75.4928V44.6144C75.3695 44.8051 75.2123 45 75.038 45.1737C74.409 45.822 73.5122 46.1186 72.6707 46.1525C71.74 46.2246 70.7795 46.0466 69.989 45.4195C68.6757 44.4407 68.5015 42.7627 68.5185 41.0847V36.5085H69.8147V41.0508C69.8147 42.5169 69.972 43.7415 70.9197 44.4407C71.4297 44.8093 72.0588 44.9831 72.76 44.9492C73.372 44.9322 73.95 44.7203 74.3707 44.339C74.8255 43.9364 75.123 43.3602 75.2462 42.7119C75.3355 42.3093 75.3525 41.8559 75.3525 41.3644V36.5085H76.6488V36.5042Z" fill="#FFFFFF"/>
        <path d="M86.4067 44.6653C85.5992 43.6695 85.3358 42.4449 85.3358 41.2076C85.3358 39.9703 85.6162 38.7458 86.4067 37.767C87.176 36.7881 88.4553 36.2458 89.8238 36.2458C91.1923 36.2458 92.4333 36.7542 93.2408 37.767C94.0483 38.7797 94.3118 40.0042 94.3118 41.2076C94.3118 42.411 94.0313 43.6525 93.2408 44.6653C92.4163 45.7119 91.1923 46.2034 89.8238 46.2034C88.4553 46.2034 87.2142 45.6949 86.4067 44.6653ZM92.208 38.5466C91.664 37.8305 90.7715 37.4619 89.8238 37.4619C88.876 37.4619 87.9665 37.8305 87.4395 38.5466C86.8785 39.2627 86.7043 40.2585 86.7043 41.2034C86.7043 42.1483 86.8785 43.161 87.4395 43.8771C87.9665 44.5932 88.876 44.9788 89.8238 44.9788C90.7715 44.9788 91.664 44.5932 92.208 43.8771C92.769 43.161 92.9433 42.1822 92.9433 41.2034C92.9433 40.2246 92.769 39.2627 92.208 38.5466Z" fill="#FFFFFF"/>
        <path d="M108.468 43.8771C109.012 44.5932 109.922 44.9788 110.87 44.9788C111.537 44.9788 112.149 44.822 112.676 44.4915C113.165 44.161 113.551 43.7246 113.832 43.1653L115.043 43.6186C114.656 44.4746 114.044 45.1398 113.326 45.5763C112.608 45.9958 111.749 46.2034 110.908 46.2034C109.556 46.2034 108.243 45.678 107.457 44.6653C106.666 43.6695 106.386 42.4449 106.386 41.2585C106.386 40.072 106.666 38.7585 107.457 37.7627C108.281 36.75 109.506 36.2415 110.874 36.2415C112.243 36.2415 113.381 36.7119 114.202 37.7458C115.026 38.7754 115.252 40.1398 115.218 41.589H107.767C107.801 42.428 107.997 43.25 108.468 43.8771ZM108.486 38.4958C108.048 39.0551 107.856 39.7542 107.784 40.4873H113.866C113.815 39.6992 113.654 39.0381 113.216 38.4788C112.689 37.7797 111.779 37.411 110.865 37.411C109.952 37.411 109.042 37.7585 108.481 38.4958H108.486Z" fill="#FFFFFF"/>
        <path d="M77.7665 9.30508C77.7665 8.07203 77.4987 6.82627 76.67 5.7839C75.9007 4.78814 74.6853 4.23729 73.3805 4.23729C73.3508 4.23729 73.1042 4.23729 73.0702 4.23729C71.9567 4.23729 70.8007 4.63135 69.9592 5.36864C69.5555 5.72034 69.2495 6.17797 69.0625 6.6822C68.85 7.25847 68.8543 7.86864 68.85 8.47458C68.833 10.1568 68.85 10.6186 68.85 11.6695V18.2203H70.125V13.2924C70.9283 14.0339 72.012 14.4068 73.185 14.4068H73.3295C74.6555 14.4068 75.871 13.8729 76.6743 12.8559C76.874 12.5975 77.0398 12.3263 77.18 12.0424C77.605 11.2034 77.7665 10.2754 77.7665 9.30508ZM73.219 12.9831C72.2713 12.9831 71.3618 12.5975 70.8348 11.8814C70.2738 11.1653 70.0995 10.1864 70.0995 9.20763C70.0995 8.22881 70.2738 7.26695 70.8348 6.55085C71.3618 5.83474 72.2713 5.4661 73.219 5.4661C74.001 5.4661 74.7447 5.72034 75.2887 6.21186C75.395 6.31356 75.497 6.42373 75.5863 6.54661C76.1133 7.24576 76.3045 8.22458 76.3045 9.20339C76.3045 10.1822 76.1303 11.178 75.6033 11.8771C75.0593 12.5932 74.1668 12.9788 73.219 12.9788V12.9831Z" fill="#FFFFFF"/>
        <path d="M96.1945 5.02965C95.4507 4.43643 94.5455 4.24999 93.6657 4.28813C92.786 4.24999 91.885 4.4322 91.137 5.02965C89.8237 6.00847 89.6495 7.68643 89.6665 9.3644V13.9407H90.9627V9.3983C90.9627 7.9322 91.12 6.70762 92.0677 6.00847C92.514 5.68643 93.0622 5.52118 93.6657 5.50847C94.2692 5.52118 94.8175 5.68643 95.2637 6.00847C96.2115 6.70762 96.3687 7.9322 96.3687 9.3983V13.9407H97.665V9.3644C97.682 7.68643 97.5077 6.00847 96.1945 5.02965Z" fill="#FFFFFF"/>
        <path d="M10.0937 15.6822C13.5347 15.6822 16.3242 12.9011 16.3242 9.47034C16.3242 6.03962 13.5347 3.25848 10.0937 3.25848C6.65273 3.25848 3.86324 6.03962 3.86324 9.47034C3.86324 12.9011 6.65273 15.6822 10.0937 15.6822Z" fill="#FFFFFF"/>
        <path d="M24.905 15.6822C28.346 15.6822 31.1355 12.9011 31.1355 9.47034C31.1355 6.03962 28.346 3.25848 24.905 3.25848C21.464 3.25848 18.6745 6.03962 18.6745 9.47034C18.6745 12.9011 21.464 15.6822 24.905 15.6822Z" fill="#FFFFFF"/>
        <path d="M39.7162 15.6822C43.1573 15.6822 45.9467 12.9011 45.9467 9.47034C45.9467 6.03962 43.1573 3.25848 39.7162 3.25848C36.2752 3.25848 33.4857 6.03962 33.4857 9.47034C33.4857 12.9011 36.2752 15.6822 39.7162 15.6822Z" fill="#FFFFFF"/>
        <path d="M24.905 31.1907C28.346 31.1907 31.1355 28.4095 31.1355 24.9788C31.1355 21.5481 28.346 18.767 24.905 18.767C21.464 18.767 18.6745 21.5481 18.6745 24.9788C18.6745 28.4095 21.464 31.1907 24.905 31.1907Z" fill="#FFFFFF"/>
        <path d="M10.0937 31.1907C13.5347 31.1907 16.3242 28.4095 16.3242 24.9788C16.3242 21.5481 13.5347 18.767 10.0937 18.767C6.65273 18.767 3.86324 21.5481 3.86324 24.9788C3.86324 28.4095 6.65273 31.1907 10.0937 31.1907Z" fill="#FFFFFF"/>
        <path d="M10.0937 46.6992C13.5347 46.6992 16.3242 43.918 16.3242 40.4873C16.3242 37.0566 13.5347 34.2754 10.0937 34.2754C6.65273 34.2754 3.86324 37.0566 3.86324 40.4873C3.86324 43.918 6.65273 46.6992 10.0937 46.6992Z" fill="#FFFFFF"/>
        <path d="M24.905 46.6992C28.346 46.6992 31.1355 43.918 31.1355 40.4873C31.1355 37.0566 28.346 34.2754 24.905 34.2754C21.464 34.2754 18.6745 37.0566 18.6745 40.4873C18.6745 43.918 21.464 46.6992 24.905 46.6992Z" fill="#FFFFFF"/>
        <path d="M39.7162 46.6992C43.1573 46.6992 45.9467 43.918 45.9467 40.4873C45.9467 37.0566 43.1573 34.2754 39.7162 34.2754C36.2752 34.2754 33.4857 37.0566 33.4857 40.4873C33.4857 43.918 36.2752 46.6992 39.7162 46.6992Z" fill="#FFFFFF"/>
        <path d="M104.966 41.0847C104.966 39.8517 104.699 38.6059 103.87 37.5636C103.101 36.5678 101.885 36.017 100.58 36.017C100.551 36.017 100.304 36.017 100.27 36.017C99.1567 36.017 98.0007 36.411 97.1592 37.1483C96.7555 37.5 96.4495 37.9576 96.2625 38.4619C96.05 39.0381 96.0542 39.6483 96.05 40.2542C96.033 41.9364 96.05 42.3983 96.05 43.4492V50H97.325V45.072C98.1282 45.8136 99.212 46.1864 100.385 46.1864H100.529C101.855 46.1864 103.071 45.6525 103.874 44.6356C104.074 44.3771 104.24 44.1059 104.38 43.822C104.805 42.9831 104.966 42.0551 104.966 41.0847ZM100.419 44.7627C99.4712 44.7627 98.5617 44.3771 98.0347 43.661C97.4737 42.9449 97.2995 41.9661 97.2995 40.9873C97.2995 40.0085 97.4737 39.0466 98.0347 38.3305C98.5617 37.6144 99.4712 37.2458 100.419 37.2458C101.201 37.2458 101.945 37.5 102.489 37.9915C102.595 38.0932 102.697 38.2034 102.786 38.3263C103.313 39.0254 103.504 40.0042 103.504 40.9831C103.504 41.9619 103.33 42.9576 102.803 43.6568C102.259 44.3729 101.367 44.7585 100.419 44.7585V44.7627Z" fill="#FFFFFF"/>
        <path d="M93.925 21.8347C93.4958 21.7119 93.0623 21.661 92.616 21.661C91.4813 21.661 90.1765 22.2373 89.4498 23.089C89.08 23.5212 88.8123 24.0339 88.6338 24.572C88.4638 25.0932 88.4255 25.6441 88.4128 26.1907C88.4 26.7373 88.3745 27.3008 88.3618 27.8559C88.349 28.4407 88.3448 29.0212 88.3448 29.6059C88.3448 29.9025 88.3448 30.1992 88.3448 30.5C88.3448 30.6441 88.3448 30.7839 88.3448 30.928C88.3448 30.9958 88.3023 31.3136 88.3448 31.3559H89.6708V26.8644C89.6708 26.3856 89.675 25.9407 89.7175 25.5254C89.8068 24.9364 89.9895 24.3814 90.3465 23.9322C90.865 23.25 91.6895 22.9746 92.5905 22.9068C92.939 22.8814 93.0538 22.8941 93.5935 22.9661C93.5935 22.9322 93.5935 23 93.5935 22.9661C93.704 22.9958 93.8145 23.0297 93.9165 23.0678V21.8263L93.925 21.8347Z" fill="#FFFFFF"/>
        <path d="M84.3965 36.5593C83.9672 36.4364 83.5337 36.3856 83.0875 36.3856C81.9527 36.3856 80.648 36.9619 79.9212 37.8136C79.5515 38.2458 79.2837 38.7585 79.1052 39.2966C78.9352 39.8178 78.897 40.3686 78.8842 40.9152C78.8715 41.4703 78.846 42.0254 78.8332 42.5805C78.8205 43.1653 78.8163 43.7458 78.8163 44.3305C78.8163 44.6271 78.8163 44.9237 78.8163 45.2246C78.8163 45.3686 78.8163 45.5085 78.8163 45.6525C78.8163 45.7203 78.7738 46.0381 78.8163 46.0805H80.1423V41.589C80.1423 41.1102 80.1465 40.6652 80.189 40.25C80.2782 39.661 80.461 39.1059 80.818 38.6568C81.3365 37.9746 82.161 37.6991 83.062 37.6314C83.4105 37.6059 83.5252 37.6186 84.065 37.6907C84.065 37.6568 84.065 37.7246 84.065 37.6907C84.1755 37.7203 84.286 37.7542 84.388 37.7924V36.5508L84.3965 36.5593Z" fill="#FFFFFF"/>
    </g>
    <defs>
        <clipPath id="clip0_4657_431">
        <rect width="119" height="50" fill="#FFFFFF"/>
        </clipPath>
    </defs>
    </svg>